<?xml version="1.0" encoding="UTF-8"?>
<svg width="68px" height="60px" viewBox="0 0 68 60" version="1.1" xmlns="http://www.w3.org/2000/svg" xmlns:xlink="http://www.w3.org/1999/xlink">
    <!-- Generator: Sketch 49 (51002) - http://www.bohemiancoding.com/sketch -->
    <title>email read 1</title>
    <desc>Created with Sketch.</desc>
    <defs></defs>
    <g id="eQuipt-Templates" stroke="none" stroke-width="1" fill="none" fill-rule="evenodd">
        <g id="eQuipt---Forgot-Password" transform="translate(-686.000000, -517.000000)" fill="#3F7EA3" fill-rule="nonzero">
            <g id="email-read-1" transform="translate(688.000000, 519.000000)">
                <path d="M47.2131148,57.1065574 C37.1135469,57.1065574 28.9262295,48.91924 28.9262295,38.8196721 C28.9262295,28.7201043 37.1135469,20.5327869 47.2131148,20.5327869 C57.3126826,20.5327869 65.5,28.7201043 65.5,38.8196721 C65.5,48.91924 57.3126826,57.1065574 47.2131148,57.1065574 Z M47.2131148,54.1065574 C55.6558283,54.1065574 62.5,47.2623857 62.5,38.8196721 C62.5,30.3769585 55.6558283,23.5327869 47.2131148,23.5327869 C38.7704012,23.5327869 31.9262295,30.3769585 31.9262295,38.8196721 C31.9262295,47.2623857 38.7704012,54.1065574 47.2131148,54.1065574 Z" id="Oval"></path>
                <path d="M54.5458972,32.5131103 C55.1316836,31.9273239 56.0814311,31.9273239 56.6672175,32.5131103 C57.253004,33.0988968 57.253004,34.0486442 56.6672175,34.6344307 L45.4759607,45.8256875 C44.8901743,46.4114739 43.9404268,46.4114739 43.3546404,45.8256875 L37.759012,40.2300591 C37.1732255,39.6442726 37.1732255,38.6945252 37.759012,38.1087387 C38.3447984,37.5229523 39.2945459,37.5229523 39.8803323,38.1087387 L44.4153005,42.643707 L54.5458972,32.5131103 Z" id="Shape"></path>
                <path d="M25.1803279,37.6693989 C26.008755,37.6693989 26.6803279,38.3409718 26.6803279,39.1693989 C26.6803279,39.997826 26.008755,40.6693989 25.1803279,40.6693989 L4.19672131,40.6693989 C1.05251507,40.6693989 -1.5,38.1157086 -1.5,34.9726776 L-1.5,4.19672131 C-1.5,1.04971763 1.05089208,-1.5 4.19672131,-1.5 L54.557377,-1.5 C57.7032063,-1.5 60.2540984,1.04971763 60.2540984,4.19672131 L60.2540984,16.7868852 C60.2540984,17.6153124 59.5825255,18.2868852 58.7540984,18.2868852 C57.9256712,18.2868852 57.2540984,17.6153124 57.2540984,16.7868852 L57.2540984,4.19672131 C57.2540984,2.70688123 56.0466612,1.5 54.557377,1.5 L4.19672131,1.5 C2.70743714,1.5 1.5,2.70688123 1.5,4.19672131 L1.5,34.9726776 C1.5,36.4591634 2.70967853,37.6693989 4.19672131,37.6693989 L25.1803279,37.6693989 Z" id="Shape"></path>
                <path d="M29.2009605,21.6859096 L56.3726449,-0.0795642964 C57.0192112,-0.597486615 57.9632157,-0.493200068 58.4811381,0.153366226 C58.9990604,0.799932521 58.8947738,1.74393706 58.2482075,2.26185938 L30.1385682,24.7786681 C29.5903846,25.2177824 28.8108984,25.217712 28.2627941,24.7784987 L0.11118754,2.21972274 C-0.535285181,1.70168362 -0.639401193,0.757660261 -0.12136208,0.11118754 C0.396677032,-0.535285181 1.3407004,-0.639401193 1.98717312,-0.12136208 L29.2009605,21.6859096 Z" id="Shape"></path>
            </g>
        </g>
    </g>
</svg>