<?xml version="1.0" encoding="UTF-8"?>
<svg width="20px" height="20px" viewBox="0 0 20 20" version="1.1" xmlns="http://www.w3.org/2000/svg" xmlns:xlink="http://www.w3.org/1999/xlink">
    <!-- Generator: Sketch 49 (51002) - http://www.bohemiancoding.com/sketch -->
    <title>Info Active</title>
    <desc>Created with Sketch.</desc>
    <defs></defs>
    <g id="eQuipt-Templates" stroke="none" stroke-width="1" fill="none" fill-rule="evenodd">
        <g id="eQuipt---Create-Account---SagePoint-Account-Number" transform="translate(-1020.000000, -715.000000)">
            <g id="Hint" transform="translate(1020.000000, 664.000000)">
                <g id="Info-Active" transform="translate(0.000000, 51.000000)">
                    <circle id="Oval-2" fill="#3F7EA3" cx="10" cy="10" r="10"></circle>
                    <path d="M7,7.65234375 C7.03645852,6.91405881 7.3019181,6.28743747 7.79638672,5.77246094 C8.29085534,5.2574844 9.0188754,5 9.98046875,5 C10.8418012,5 11.5401991,5.23583749 12.0756836,5.70751953 C12.611168,6.17920158 12.8789062,6.76822563 12.8789062,7.47460938 C12.8789062,8.01237248 12.750164,8.47379365 12.4926758,8.85888672 C12.2351875,9.24397979 11.8876975,9.56868357 11.4501953,9.83300781 C11.0172504,10.0882174 10.7233081,10.3308908 10.5683594,10.5610352 C10.4134107,10.7911795 10.3359375,11.0862612 10.3359375,11.4462891 L10.3359375,11.890625 L9.13964844,11.890625 L9.13964844,11.2617188 C9.13509112,10.8105446 9.24446503,10.4209001 9.46777344,10.0927734 C9.69108185,9.7646468 10.0374325,9.46158993 10.5068359,9.18359375 C10.9033223,8.94205608 11.1858716,8.69824342 11.3544922,8.45214844 C11.5231128,8.20605346 11.6074219,7.90071797 11.6074219,7.53613281 C11.6074219,7.11230257 11.4558934,6.76139462 11.152832,6.48339844 C10.8497706,6.20540226 10.4430364,6.06640625 9.93261719,6.06640625 C9.41764065,6.06640625 9.00407057,6.20882019 8.69189453,6.49365234 C8.37971849,6.7784845 8.20540383,7.1647111 8.16894531,7.65234375 L7,7.65234375 Z M9.83007812,15.0625 C9.55208194,15.0625 9.32421964,14.9736337 9.14648438,14.7958984 C8.96874911,14.6181632 8.87988281,14.3903009 8.87988281,14.1123047 C8.87988281,13.8297512 8.96874911,13.5996103 9.14648438,13.421875 C9.32421964,13.2441397 9.55208194,13.1552734 9.83007812,13.1552734 C10.1080743,13.1552734 10.3347973,13.2441397 10.5102539,13.421875 C10.6857105,13.5996103 10.7734375,13.8297512 10.7734375,14.1123047 C10.7734375,14.3903009 10.6857105,14.6181632 10.5102539,14.7958984 C10.3347973,14.9736337 10.1080743,15.0625 9.83007812,15.0625 Z" id="?" fill="#FFFFFF"></path>
                </g>
            </g>
        </g>
    </g>
</svg>