<?xml version="1.0" encoding="UTF-8"?>
<svg width="55px" height="60px" viewBox="0 0 55 60" version="1.1" xmlns="http://www.w3.org/2000/svg" xmlns:xlink="http://www.w3.org/1999/xlink">
    <!-- Generator: Sketch 49 (51002) - http://www.bohemiancoding.com/sketch -->
    <title>ic phonelink lock 24 px</title>
    <desc>Created with Sketch.</desc>
    <defs></defs>
    <g id="eQuipt-Templates" stroke="none" stroke-width="1" fill="none" fill-rule="evenodd">
        <g id="eQuipt---Forgot-Password" transform="translate(-966.000000, -517.000000)">
            <g id="ic-phonelink-lock-24-px" transform="translate(968.000000, 517.000000)">
                <path d="M47.3920997,0 C50.3660282,0 52.7992424,2.4328168 52.7992424,5.40625957 L52.7992424,54.0625957 C52.7992424,57.0360384 50.3660282,59.4688552 47.3920997,59.4688552 L20.3563861,59.4688552 C17.3824576,59.4688552 14.9492433,57.0360384 14.9492433,54.0625957 L14.9492433,46.2932521 L18.4413564,46.2932521 L18.4413564,49.4447489 L49.3071294,49.4447489 L49.3071294,3.32259702 L18.4413564,3.32259702 L18.4413564,5.40625957 L14.9492433,5.40625957 C14.9492433,2.4328168 17.3824576,0 20.3563861,0 L47.3920997,0 Z M34.5699351,57.5444285 C36.1591485,57.5444285 37.4474604,56.256327 37.4474604,54.6673733 C37.4474604,53.0784195 36.1591485,51.790318 34.5699351,51.790318 C32.9807218,51.790318 31.6924099,53.0784195 31.6924099,54.6673733 C31.6924099,56.256327 32.9807218,57.5444285 34.5699351,57.5444285 Z M20.7499425,23.2381677 L20.7499425,20.7194666 C20.7499425,18.3686789 18.3987708,16.5216314 16.047599,16.5216314 C13.6964273,16.5216314 11.3452556,18.3686789 11.3452556,20.7194666 L11.3452556,23.2381677 C10.3376106,23.2381677 9.32996553,24.2456482 9.32996553,25.2531286 L9.32996553,31.1300979 C9.32996553,32.3054917 10.3376106,33.3129722 11.3452556,33.3129722 L20.5820017,33.3129722 C21.7575875,33.3129722 22.7652325,32.3054917 22.7652325,31.2980113 L22.7652325,25.421042 C22.7652325,24.2456482 21.7575875,23.2381677 20.7499425,23.2381677 Z M18.56599,23.237643 L13.5281585,23.237643 L13.5281585,20.7191386 C13.5281585,19.3759363 14.7036525,18.5364349 16.0470742,18.5364349 C17.390496,18.5364349 18.56599,19.3759363 18.56599,20.7191386 L18.56599,23.237643 Z" id="Shape" fill="#3F7EA3" fill-rule="nonzero"></path>
                <ellipse id="Oval" stroke="#3F7EA3" stroke-width="3" stroke-linecap="round" stroke-linejoin="round" cx="16.8504719" cy="25.8030303" rx="16.8504719" ry="16.969697"></ellipse>
            </g>
        </g>
    </g>
</svg>