<?xml version="1.0" encoding="UTF-8"?>
<svg width="47px" height="36px" viewBox="0 0 47 36" version="1.1" xmlns="http://www.w3.org/2000/svg" xmlns:xlink="http://www.w3.org/1999/xlink">
    <!-- Generator: Sketch 49 (51002) - http://www.bohemiancoding.com/sketch -->
    <title>noun_650611</title>
    <desc>Created with Sketch.</desc>
    <defs></defs>
    <g id="eQuipt-Templates" stroke="none" stroke-width="1" fill="none" fill-rule="evenodd">
        <g id="eQuipt---Convert" transform="translate(-682.000000, -454.000000)" fill="#3F7EA3" fill-rule="nonzero" stroke="#F6F6F6" stroke-width="3">
            <g id="Group-3" transform="translate(546.000000, 407.000000)">
                <g id="noun_650611" transform="translate(138.000000, 49.000000)">
                    <path d="M2.80434783,18.7270566 L33.4278261,18.7270566 L24.6595652,27.3030391 C23.941934,27.9944374 23.658568,29.0091704 23.9172211,29.961372 C24.1758742,30.9135736 24.9368053,31.6569417 25.9106599,31.9088004 C26.8845146,32.1606592 27.9216638,31.8823114 28.6277174,31.1796026 L42.1820652,17.9224868 C42.3147112,17.7927497 42.433713,17.6503223 42.5372826,17.4973448 L42.5372826,17.4653449 C42.6311706,17.3205848 42.7109763,17.1675345 42.7756522,17.008203 L42.7756522,16.9716316 C42.8376118,16.823719 42.8860972,16.6707444 42.9205435,16.5144897 L42.9205435,16.4870612 C42.9629022,16.3222125 42.9895021,16.1538696 43,15.984205 C42.9987204,15.815396 42.9815097,15.647063 42.948587,15.4813489 L42.948587,15.4539204 C42.9141407,15.2976657 42.8656553,15.1446911 42.8036957,14.9967785 L42.8036957,14.9602071 C42.7390198,14.8008756 42.6592141,14.6478253 42.5653261,14.5030652 L42.5653261,14.4710653 C42.4617565,14.3180878 42.3427547,14.1756604 42.2101087,14.0459233 L28.6557609,0.788807444 C27.5587079,-0.268142852 25.7954998,-0.262155329 24.7059771,0.802220166 C23.6164545,1.86659566 23.6082547,3.59113026 24.6876087,4.66537097 L33.4278261,13.2413535 L2.80434783,13.2413535 C1.25554929,13.2413535 2.07563435e-16,14.46937 0,15.984205 C-2.07563435e-16,17.4990401 1.25554929,18.7270566 2.80434783,18.7270566 Z" id="Shape"></path>
                </g>
            </g>
        </g>
    </g>
</svg>