<?xml version="1.0" encoding="UTF-8"?>
<svg width="70px" height="70px" viewBox="0 0 70 70" version="1.1" xmlns="http://www.w3.org/2000/svg" xmlns:xlink="http://www.w3.org/1999/xlink">
    <!-- Generator: Sketch 49 (51002) - http://www.bohemiancoding.com/sketch -->
    <title>task question</title>
    <desc>Created with Sketch.</desc>
    <defs></defs>
    <g id="eQuipt-Templates" stroke="none" stroke-width="1" fill="none" fill-rule="evenodd">
        <g id="eQuipt---Forgot-Password" transform="translate(-404.000000, -511.000000)" fill="#3F7EA3" fill-rule="nonzero">
            <g id="task-question" transform="translate(406.000000, 513.000000)">
                <path d="M48.5833333,67.0833333 C38.3660655,67.0833333 30.0833333,58.8006012 30.0833333,48.5833333 C30.0833333,38.3660655 38.3660655,30.0833333 48.5833333,30.0833333 C58.8006012,30.0833333 67.0833333,38.3660655 67.0833333,48.5833333 C67.0833333,58.8006012 58.8006012,67.0833333 48.5833333,67.0833333 Z M48.5833333,64.0833333 C57.143747,64.0833333 64.0833333,57.143747 64.0833333,48.5833333 C64.0833333,40.0229197 57.143747,33.0833333 48.5833333,33.0833333 C40.0229197,33.0833333 33.0833333,40.0229197 33.0833333,48.5833333 C33.0833333,57.143747 40.0229197,64.0833333 48.5833333,64.0833333 Z" id="Oval"></path>
                <path d="M48.5833333,58.5 C47.7985,58.5 47.1666667,59.1375 47.1666667,59.9195 C47.1666667,60.6958333 47.7985,61.3333333 48.5833333,61.3333333 C49.3625,61.3333333 50,60.6958333 50,59.9195 C50,59.1375 49.3625,58.5 48.5833333,58.5 Z" id="Shape"></path>
                <path d="M50.0833333,54.25 C50.0833333,55.0784271 49.4117605,55.75 48.5833333,55.75 C47.7549062,55.75 47.0833333,55.0784271 47.0833333,54.25 L47.0833333,48.5833333 C47.0833333,47.7549062 47.7549062,47.0833333 48.5833333,47.0833333 C50.4947395,47.0833333 52.0416667,45.5364062 52.0416667,43.625 C52.0416667,41.7135938 50.4947395,40.1666667 48.5833333,40.1666667 C46.6719271,40.1666667 45.125,41.7135938 45.125,43.625 C45.125,44.4534271 44.4534271,45.125 43.625,45.125 C42.7965729,45.125 42.125,44.4534271 42.125,43.625 C42.125,40.0567395 45.0150729,37.1666667 48.5833333,37.1666667 C52.1515938,37.1666667 55.0416667,40.0567395 55.0416667,43.625 C55.0416667,46.6768189 52.9276266,49.2325549 50.0833333,49.9084211 L50.0833333,54.25 Z" id="Shape"></path>
                <path d="M1.91666667,10.4166667 L1.91666667,54.25 C1.91666667,56.5417204 3.79290685,58.4166667 6.08333333,58.4166667 L28.75,58.4166667 C29.5784271,58.4166667 30.25,59.0882395 30.25,59.9166667 C30.25,60.7450938 29.5784271,61.4166667 28.75,61.4166667 L6.08333333,61.4166667 C2.13651574,61.4166667 -1.08333333,58.1990382 -1.08333333,54.25 L-1.08333333,8.91666667 C-1.08333333,8.08823954 -0.411760458,7.41666667 0.416666667,7.41666667 L11.75,7.41666667 C12.5784271,7.41666667 13.25,8.08823954 13.25,8.91666667 C13.25,9.74509379 12.5784271,10.4166667 11.75,10.4166667 L1.91666667,10.4166667 Z" id="Shape"></path>
                <path d="M44.25,10.4166667 L34.4166667,10.4166667 C33.5882395,10.4166667 32.9166667,9.74509379 32.9166667,8.91666667 C32.9166667,8.08823954 33.5882395,7.41666667 34.4166667,7.41666667 L45.75,7.41666667 C46.5784271,7.41666667 47.25,8.08823954 47.25,8.91666667 L47.25,25.9166667 C47.25,26.7450938 46.5784271,27.4166667 45.75,27.4166667 C44.9215729,27.4166667 44.25,26.7450938 44.25,25.9166667 L44.25,10.4166667 Z" id="Shape"></path>
                <path d="M30.1147818,4.58333333 L34.4166667,4.58333333 C35.2450938,4.58333333 35.9166667,5.25490621 35.9166667,6.08333333 L35.9166667,17.4166667 C35.9166667,18.2450938 35.2450938,18.9166667 34.4166667,18.9166667 L11.75,18.9166667 C10.9215729,18.9166667 10.25,18.2450938 10.25,17.4166667 L10.25,6.08333333 C10.25,5.25490621 10.9215729,4.58333333 11.75,4.58333333 L16.0518848,4.58333333 C16.6394643,1.39959585 19.1209402,-1.08333333 23.0833333,-1.08333333 C27.0457264,-1.08333333 29.5272024,1.39959585 30.1147818,4.58333333 Z M28.75,7.58333333 C27.9215729,7.58333333 27.25,6.91176046 27.25,6.08333333 C27.25,3.7363415 25.8158301,1.91666667 23.0833333,1.91666667 C20.3508366,1.91666667 18.9166667,3.7363415 18.9166667,6.08333333 C18.9166667,6.91176046 18.2450938,7.58333333 17.4166667,7.58333333 L13.25,7.58333333 L13.25,15.9166667 L32.9166667,15.9166667 L32.9166667,7.58333333 L28.75,7.58333333 Z" id="Shape"></path>
                <path d="M14.5833333,27.4166667 C13.7549062,27.4166667 13.0833333,26.7450938 13.0833333,25.9166667 C13.0833333,25.0882395 13.7549062,24.4166667 14.5833333,24.4166667 L28.75,24.4166667 C29.5784271,24.4166667 30.25,25.0882395 30.25,25.9166667 C30.25,26.7450938 29.5784271,27.4166667 28.75,27.4166667 L14.5833333,27.4166667 Z" id="Shape"></path>
                <path d="M14.5833333,33.0833333 C13.7549062,33.0833333 13.0833333,32.4117605 13.0833333,31.5833333 C13.0833333,30.7549062 13.7549062,30.0833333 14.5833333,30.0833333 L28.75,30.0833333 C29.5784271,30.0833333 30.25,30.7549062 30.25,31.5833333 C30.25,32.4117605 29.5784271,33.0833333 28.75,33.0833333 L14.5833333,33.0833333 Z" id="Shape"></path>
                <path d="M14.5833333,38.75 C13.7549062,38.75 13.0833333,38.0784271 13.0833333,37.25 C13.0833333,36.4215729 13.7549062,35.75 14.5833333,35.75 L28.75,35.75 C29.5784271,35.75 30.25,36.4215729 30.25,37.25 C30.25,38.0784271 29.5784271,38.75 28.75,38.75 L14.5833333,38.75 Z" id="Shape"></path>
                <path d="M14.5833333,44.4166667 C13.7549062,44.4166667 13.0833333,43.7450938 13.0833333,42.9166667 C13.0833333,42.0882395 13.7549062,41.4166667 14.5833333,41.4166667 L23.0833333,41.4166667 C23.9117605,41.4166667 24.5833333,42.0882395 24.5833333,42.9166667 C24.5833333,43.7450938 23.9117605,44.4166667 23.0833333,44.4166667 L14.5833333,44.4166667 Z" id="Shape"></path>
            </g>
        </g>
    </g>
</svg>