<?xml version="1.0" encoding="UTF-8"?>
<svg width="86px" height="107px" viewBox="0 0 86 107" version="1.1" xmlns="http://www.w3.org/2000/svg" xmlns:xlink="http://www.w3.org/1999/xlink">
    <!-- Generator: Sketch 49 (51002) - http://www.bohemiancoding.com/sketch -->
    <title>Page 1</title>
    <desc>Created with Sketch.</desc>
    <defs></defs>
    <g id="eQuipt-Templates" stroke="none" stroke-width="1" fill="none" fill-rule="evenodd">
        <g id="eQuipt---Create-Acccount---Whoops" transform="translate(-677.000000, -198.000000)" fill="#3F7EA3">
            <path d="M720.000802,198.128591 C719.919362,198.133686 719.837922,198.143863 719.756482,198.164216 C719.659771,198.184583 719.563059,198.210031 719.471443,198.245656 L677.774226,216.4074 C677.290682,216.621176 676.985276,217.104734 677.000547,217.634093 C677.000547,245.665047 678.715867,261.641596 684.981655,273.624333 C691.247444,285.606159 701.915937,293.246783 719.267191,304.774767 C719.710016,305.075078 720.290285,305.075078 720.733109,304.774767 C738.084363,293.245871 748.753639,285.605768 755.018645,273.624333 C761.284434,261.642508 762.999753,245.665047 762.999753,217.634093 C763.00993,217.104734 762.704537,216.626271 762.226074,216.412495 L720.528858,198.250751 C720.360883,198.169311 720.182745,198.128591 719.999499,198.128591 L720.000802,198.128591 Z M720.000802,200.897547 L760.39498,218.48856 C760.35426,245.817176 758.547272,261.219086 752.698977,272.401758 C746.875961,283.533612 736.827974,290.924443 720.000541,302.126661 C703.173108,290.923531 693.125382,283.532309 687.302105,272.401758 C681.45368,261.219086 679.646757,245.817176 679.606102,218.48856 L720.000802,200.897547 Z M720.000802,224.229746 C717.119915,224.229746 714.78865,226.561011 714.78865,229.441898 L716.091688,252.896582 C716.091688,255.054673 717.84271,256.805696 720.000802,256.805696 C722.158893,256.805696 723.909916,255.054673 723.909916,252.896582 L725.212954,229.441898 C725.212954,226.561011 722.881689,224.229746 720.000802,224.229746 Z M720.000802,263.320886 C716.402202,263.320886 713.485612,266.237476 713.485612,269.836076 C713.485612,273.434676 716.402202,276.351266 720.000802,276.351266 C723.599402,276.351266 726.515992,273.434676 726.515992,269.836076 C726.515992,266.237476 723.599402,263.320886 720.000802,263.320886 Z" id="Page-1"></path>
        </g>
    </g>
</svg>